<svg style="position: absolute; width: 0; height: 0;" width="0" height="0" version="1.1" xmlns="http://www.w3.org/2000/svg" xmlns:xlink="http://www.w3.org/1999/xlink"><defs><symbol id=".notdef" viewBox="0 -212 1024 1024"><path d="M589 804 l0 -437 l435 0 l0 -136 l-435 0 l0 -435 l-136 0 l0 435 l-437 0 l0 136 l437 0 l0 437 l136 0 Z"></path></symbol><symbol id="**" viewBox="0 -212 1024 1024"><path d="M30 214 l0 172 l1081 0 l0 -172 l-1081 0 Z"></path></symbol><symbol id="**" viewBox="0 -212 1024 1024"><path d="M1025 789.25 q-35 30 -71 0 l-908 -907 q-29 -36 1 -71 q35 -30 70 -1 l908 909 q30 35 0 70 ZM47 789.25 q-30 -35 0 -70 l907 -909 q36 -29 71 1 q30 35 1 71 l-908 907 q-36 30 -71 0 Z"></path></symbol><symbol id="**" viewBox="0 -212 1024 1024"><path d="M1025 789.25 q-35 30 -71 0 l-908 -907 q-29 -36 1 -71 q35 -30 70 -1 l908 909 q30 35 0 70 ZM47 789.25 q-30 -35 0 -70 l907 -909 q36 -29 71 1 q30 35 1 71 l-908 907 q-36 30 -71 0 ZM116 384.25 q-17 0 -32.5 -6.5 q-15.5 -6.5 -27 -18 q-11.5 -11.5 -18 -26.5 q-6.5 -15 -6.5 -32.5 q0 -17.5 6.5 -33 q6.5 -15.5 18 -27 q11.5 -11.5 27 -18 q15.5 -6.5 32.5 -6.5 q17 0 32.5 6.5 q15.5 6.5 27 18 q11.5 11.5 18 27 q6.5 15.5 6.5 33 q0 17.5 -6.5 32.5 q-6.5 15 -18 26.5 q-11.5 11.5 -27 18 q-15.5 6.5 -32.5 6.5 ZM535.5 804.25 q-17.5 0 -32.5 -6.5 q-15 -6.5 -26.5 -18 q-11.5 -11.5 -18 -26.5 q-6.5 -15 -6.5 -32.5 q0 -17.5 6.5 -33 q6.5 -15.5 18 -27 q11.5 -11.5 26.5 -17.5 q15 -6 32.5 -6 q17.5 0 33 6 q15.5 6 27 17.5 q11.5 11.5 18 27 q6.5 15.5 6.5 33 q0 17.5 -6.5 32.5 q-6.5 15 -18 26.5 q-11.5 11.5 -27 18 q-15.5 6.5 -33 6.5 ZM535.5 -34.75 q-17.5 0 -32.5 -7 q-15 -7 -26.5 -18 q-11.5 -11 -18 -26.5 q-6.5 -15.5 -6.5 -33.5 q0 -18 6.5 -32.5 q6.5 -14.5 18 -26.5 q11.5 -12 26.5 -18.5 q15 -6.5 32.5 -6.5 q17.5 0 33 6.5 q15.5 6.5 27 18.5 q11.5 12 18 26.5 q6.5 14.5 6.5 32.5 q0 18 -6.5 33.5 q-6.5 15.5 -18 26.5 q-11.5 11 -27 18 q-15.5 7 -33 7 ZM956 384.25 q-18 0 -33.5 -6.5 q-15.5 -6.5 -26.5 -18 q-11 -11.5 -17.5 -26.5 q-6.5 -15 -6.5 -32.5 q0 -17.5 6.5 -33 q6.5 -15.5 17.5 -27 q11 -11.5 26.5 -18 q15.5 -6.5 33.5 -6.5 q18 0 32.5 6.5 q14.5 6.5 26.5 18 q12 11.5 18.5 27 q6.5 15.5 6.5 33 q0 17.5 -6.5 32.5 q-6.5 15 -18.5 26.5 q-12 11.5 -26.5 18 q-14.5 6.5 -32.5 6.5 Z"></path></symbol><symbol id="**" viewBox="0 -212 1024 1024"><path d="M71 742 l899 0 l0 -884 l-899 0 l0 884 ZM16 -204 l1008 0 l0 1008 l-1008 0 l0 -1008 Z"></path></symbol><symbol id="**" viewBox="0 -212 1024 1024"><path d="M835 790 q36 -26 30 -71 l-44 -275 l192 -198 q29 -32 16 -74 q-14 -41 -58 -49 l-261 -40 l-114 -245 q-21 -40 -66 -42 q-46 2 -66 42 l-114 245 l-262 40 q-43 8 -58 49 q-13 42 17 74 l192 198 l-45 275 q-5 45 30 71 q20 14 42 14 q18 0 35 -9 l229 -127 l228 127 q17 9 35 9 q23 0 42 -14 ZM394 144 l135 -289 l135 289 l308 48 l-223 228 l8 47 l44 274 l-272 -151 l-272 151 l45 -274 l7 -47 l-223 -228 l308 -48 Z"></path></symbol><symbol id="**" viewBox="0 -212 1024 1024"><path d="M223 790 q19 14 42 14 q18 0 35 -9 l228 -127 l229 127 q17 9 35 9 q22 0 42 -14 q35 -26 30 -71 l-45 -275 l192 -198 q30 -32 17 -74 q-15 -41 -58 -49 l-262 -40 l-114 -245 q-20 -40 -66 -42 q-45 2 -66 42 l-114 245 l-261 40 q-44 8 -58 49 q-13 42 16 74 l192 198 l-44 275 q-6 45 30 71 Z"></path></symbol><symbol id="**.notdef" viewBox="0 -212 1024 1024"><path d="M520 -204 q104 0 196 39 q92 39 161 108.5 q69 69.5 108 161.5 q39 92 39 195.5 q0 103.5 -39 195.5 q-39 92 -108 160.5 q-69 68.5 -161 108 q-92 39.5 -196 39.5 q-104 0 -196 -39.5 q-92 -39.5 -160.5 -108 q-68.5 -68.5 -108 -160.5 q-39.5 -92 -39.5 -195.5 q0 -103.5 39.5 -195.5 q39.5 -92 108 -161.5 q68.5 -69.5 160.5 -108.5 q92 -39 196 -39 ZM520 144 q32 0 60 12.5 q28 12.5 49.5 33.5 q21.5 21 33.5 49.5 q12 28.5 12 60 q0 31.5 -12 60.5 q-12 29 -33.5 50 q-21.5 21 -49.5 33 q-28 12 -60 12 q-32 0 -60.5 -12 q-28.5 -12 -49.5 -33 q-21 -21 -33 -50 q-12 -29 -12 -60.5 q0 -31.5 12 -60 q12 -28.5 33 -49.5 q21 -21 49.5 -33.5 q28.5 -12.5 60.5 -12.5 ZM520 -126 q-87 0 -163 33 q-76 33 -133 92 q-57 59 -89 136.5 q-32 77.5 -32 165 q0 87.5 32 165.5 q32 78 89 136 q57 58 133 91 q76 33 163 33 q87 0 163 -33 q76 -33 133 -91 q57 -58 89.5 -136 q32.5 -78 32.5 -165.5 q0 -87.5 -32.5 -165 q-32.5 -77.5 -89.5 -136.5 q-57 -59 -133 -92 q-76 -33 -163 -33 Z"></path></symbol><symbol id="**" viewBox="0 -212 1024 1024"><path d="M688 -204 l-671 1008 l1344 0 l-673 -1008 Z"></path></symbol><symbol id="***.notdef" viewBox="0 -212 1024 1024"><path d="M519.5 -204 q104.5 0 196 39.5 q91.5 39.5 160.5 108.5 q69 69 108.5 161 q39.5 92 39.5 195.5 q0 103.5 -39.5 196 q-39.5 92.5 -108.5 160.5 q-69 68 -160.5 107.5 q-91.5 39.5 -196 39.5 q-104.5 0 -196 -39.5 q-91.5 -39.5 -160 -107.5 q-68.5 -68 -108 -160.5 q-39.5 -92.5 -39.5 -196 q0 -103.5 39.5 -195.5 q39.5 -92 108 -161 q68.5 -69 160 -108.5 q91.5 -39.5 196 -39.5 ZM520 -126 q-87 0 -163 33 q-76 33 -133 92 q-57 59 -89 136.5 q-32 77.5 -32 165 q0 87.5 32 165.5 q32 78 89 136 q57 58 133 91 q76 33 163 33 q87 0 163 -33 q76 -33 133 -91 q57 -58 89.5 -136 q32.5 -78 32.5 -165.5 q0 -87.5 -32.5 -165 q-32.5 -77.5 -89.5 -136.5 q-57 -59 -133 -92 q-76 -33 -163 -33 Z"></path></symbol><symbol id="**" viewBox="0 -212 1024 1024"><path d="M1267 751 l-1157 0 l578 -867 l579 867 ZM688 -204 l-671 1008 l1344 0 l-673 -1008 Z"></path></symbol><symbol id="**" viewBox="0 -212 1024 1024"><path d="M522.5 619 q-70.5 0 -133 -25.5 q-62.5 -25.5 -109 -71.5 q-46.5 -46 -73.5 -106.5 q-27 -60.5 -27 -128.5 q0 -68 27 -129 q27 -61 73.5 -106.5 q46.5 -45.5 109 -71.5 q62.5 -26 133 -26 q70.5 0 133 26 q62.5 26 109.5 71.5 q47 45.5 73 106.5 q26 61 26 129 q0 68 -26 128.5 q-26 60.5 -73 106.5 q-47 46 -109.5 71.5 q-62.5 25.5 -133 25.5 ZM762 486 l264 262 l-57 56 l-262 -262 l55 -56 ZM707 59 l262 -263 l57 56 l-264 263 l-55 -56 ZM280 115 l-263 -263 l57 -56 l262 263 l-56 56 ZM336 542 l-262 262 l-57 -56 l263 -262 l56 56 ZM521 577 q60 0 113.5 -22.5 q53.5 -22.5 93.5 -62.5 q40 -40 62.5 -93 q22.5 -53 22.5 -112.5 q0 -59.5 -22.5 -112.5 q-22.5 -53 -62.5 -93 q-40 -40 -93.5 -62 q-53.5 -22 -113.5 -22 q-60 0 -113.5 22 q-53.5 22 -93 62 q-39.5 40 -62.5 93 q-23 53 -23 112.5 q0 59.5 23 112.5 q23 53 62.5 93 q39.5 40 93 62.5 q53.5 22.5 113.5 22.5 Z"></path></symbol><symbol id="**" viewBox="0 -212 1024 1024"><path d="M521 549 l0 -145 q108 -12 186 -88 q88 -90 90 -215 q-2 -126 -90 -215 q-90 -89 -215 -90 q-126 1 -216 89 q-87 90 -89 216 q2 125 89 215 q76 75 181 87 l0 146 l-174 0 q-29 2 -32 32 q3 30 32 32 l174 0 l0 159 q2 29 32 32 q29 -3 32 -32 l0 -159 l174 0 q29 -2 32 -32 q-3 -29 -32 -32 l-174 0 ZM252 101 q20 -220 240 -240 q219 20 240 240 q-21 219 -240 240 q-220 -21 -240 -240 Z"></path></symbol><symbol id="**" viewBox="0 -212 1024 1024"><path d="M354 804 q193 0 316 -139 l113 120 l140 0 l-192 -204 q84 -148 92 -364 l-110 0 q-10 166 -63 280 l-243 -257 q59 -37 116 -75 q90 -73 91 -169 q-1 -94 -71 -147 q-66 -53 -168 -53 q-104 0 -172 53 q-73 56 -73 153 q0 58 40 119 q23 38 88 106 l-117 66 q-126 92 -126 227 q0 136 99 214 q91 69 240 70 ZM348 177 q-43 -48 -64 -77 q-44 -60 -44 -99 q0 -57 35 -85 q33 -33 97 -33 q61 -1 98 35 q33 32 33 84 q0 86 -127 159 q-17 8 -28 16 ZM350 705 q-97 0 -158 -49 q-66 -53 -66 -135 q-1 -82 72 -144 q56 -43 121 -84 l277 295 q-93 117 -246 117 Z"></path></symbol><symbol id="xiazai" viewBox="0 -212 1024 1024"><path d="M855 516.5 q2 44 -1 88 q-3 44 -28.5 67.5 q-25.5 23.5 -70.5 24.5 q-131 1 -262 0 q-122 0 -244 0 q-56 0 -82.5 -26.5 q-26.5 -26.5 -27.5 -82.5 q-1 -35 1 -70 q2 -20 12 -31 q10 -11 25.5 -11 q15.5 0 25.5 11 q10 11 12 31 q1 15 0.5 30.5 q-0.5 15.5 0.5 30.5 q1 23 11 33 q10 10 33 12 q14 0 27 0 l420 0 q18 1 36 -1 q34 -4 36 -38 q0 -33 0 -67 q2 -19 11.5 -30.5 q9.5 -11.5 25.5 -11.5 q16 0 26.5 10.5 q10.5 10.5 12.5 30.5 ZM736 209.5 q12 -9 25 -9 q13 0 24.5 11 q11.5 11 11.5 23.5 q0 12.5 -8 24.5 q-9 11 -19 19 l-230 226 l-7 9 q-5 4 -9 6 l-6 1 q-20 17 -45 2 q-9 -6 -16 -14 l-120 -117 q-85 -83 -119 -118 q-8 -8 -13 -15 l-9 -14 q1 -27 17.5 -37.5 q16.5 -10.5 37.5 -1.5 q13 8 23 20 l185 180 l0 -364 q-1 -18 2 -35 q7 -26 36.5 -26 q29.5 0 34.5 29 q2 17 2 35 l0 348 l10 4 l162 -160 q14 -14 30 -27 Z"></path></symbol><symbol id="yulan" viewBox="0 -212 1024 1024"><path d="M919 457 q0 12 8.5 21 q8.5 9 21.5 9 q13 0 22 -9 q9 -9 9 -21 l0 -514 q-1 -26 -18 -43 q-17 -17 -43 -18 l-738 0 q-26 1 -43 18 q-17 17 -18 43 l0 726 q0 24 18 42 q18 18 43 18 l523 0 q12 0 21 -8.5 q9 -8.5 9 -21.5 q0 -13 -9 -21.5 q-9 -8.5 -21 -8.5 l-523 0 l0 -726 l738 0 l0 514 ZM908 701 q9 8 21 8 q12 0 21.5 -9 q9.5 -9 9.5 -21 q0 -12 -9 -21 l-225 -222 l-44 43 l226 222 ZM550 487 q-78 -2 -130 -53 q-52 -51 -54 -128 q2 -77 54 -128.5 q52 -51.5 130 -53.5 q78 2 130 53.5 q52 51.5 54 128.5 q-2 77 -54 128 q-52 51 -130 53 ZM550 548 q104 -3 173.5 -71.5 q69.5 -68.5 72.5 -170.5 q-3 -103 -72.5 -171 q-69.5 -68 -173.5 -71 q-67 0 -124 31 q-57 31 -91 88.5 q-34 57.5 -34 122 q0 64.5 34 122 q34 57.5 91 89 q57 31.5 124 31.5 Z"></path></symbol><symbol id="xinzeng" viewBox="0 -212 1024 1024"><path d="M244 -139 q-60 2 -100 42.5 q-40 40.5 -42 102.5 l0 576 q2 62 42 102.5 q40 40.5 100 41.5 l568 0 q60 -1 100 -41.5 q40 -40.5 42 -102.5 l0 -576 q-2 -62 -42 -102.5 q-40 -40.5 -100 -42.5 l-568 0 ZM814 -71 q30 1 50.5 22.5 q20.5 21.5 21.5 51.5 l0 584 q-1 30 -21.5 51 q-20.5 21 -50.5 22 l-573 0 q-30 -1 -50.5 -22 q-20.5 -21 -21.5 -51 l0 -584 q1 -30 21.5 -51.5 q20.5 -21.5 50.5 -22.5 l573 0 ZM315 257 l0 73 l177 0 l0 180 l72 0 l0 -180 l177 0 l0 -73 l-177 0 l0 -180 l-72 0 l0 180 l-177 0 Z"></path></symbol><symbol id="huifu" viewBox="0 -212 1024 1024"><path d="M317 244 l0 0 ZM257 244 q0 -16 7.5 -29.5 q7.5 -13.5 21.5 -22 q14 -8.5 30.5 -8.5 q16.5 0 30.5 8.5 q14 8.5 22 22 q8 13.5 9 29.5 q-1 25 -18.5 42.5 q-17.5 17.5 -43 17.5 q-25.5 0 -42.5 -17.5 q-17 -17.5 -17 -42.5 ZM534 244 l0 0 ZM474 244 q0 -16 7.5 -29.5 q7.5 -13.5 22 -22 q14.5 -8.5 30.5 -8.5 q16 0 30.5 8.5 q14.5 8.5 22 22 q7.5 13.5 7.5 29.5 q0 25 -17 42.5 q-17 17.5 -43 17.5 q-26 0 -43 -17.5 q-17 -17.5 -17 -42.5 ZM751 244 l0 0 ZM690 244 q1 -26 18.5 -42.5 q17.5 -16.5 43 -16.5 q25.5 0 42.5 16.5 q17 16.5 17 42 q0 25.5 -17 43 q-17 17.5 -42.5 17.5 q-25.5 0 -43 -17.5 q-17.5 -17.5 -18.5 -42.5 ZM363 715 q8 0 16 -4 l197 -144 l213 0 q72 -2 121 -50 q49 -48 52 -120 l0 -291 q-2 -73 -50.5 -121 q-48.5 -48 -121.5 -50 l-512 0 q-73 2 -121.5 50 q-48.5 48 -50.5 121 l0 291 q2 72 49.5 120 q47.5 48 121.5 50 l59 0 l0 120 q0 17 15 25 q6 3 12 3 ZM789 -11 q50 1 83 34 q33 33 35 83 l0 292 q-2 50 -35 83 q-33 33 -83 34 l-223 0 q-7 0 -15 5 l-161 117 l0 -95 q-1 -13 -8.5 -20.5 q-7.5 -7.5 -20.5 -8.5 l-84 0 q-51 -1 -84.5 -34 q-33.5 -33 -34.5 -82 l0 -291 q1 -50 34.5 -83 q33.5 -33 84.5 -34 l512 0 Z"></path></symbol><symbol id="bushijiajizhuangtai" viewBox="0 -212 1024 1024"><path d="M446 565 l26 -198 l-102 0 l200 -258 l-25 198 l101 0 l-200 258 ZM503 -73 q175 5 291.5 120.5 q116.5 115.5 121.5 289.5 q-5 175 -121.5 290.5 q-116.5 115.5 -291.5 119.5 q-176 -4 -292.5 -119.5 q-116.5 -115.5 -121.5 -290.5 q5 -174 121.5 -289.5 q116.5 -115.5 292.5 -120.5 ZM503 -3 q-71 0 -134 26 q-62 26 -109.5 73.5 q-47.5 47.5 -73.5 108.5 q-27 62 -27 132 q0 70 27 132 q26 62 73.5 109 q47.5 47 109.5 73 q63 27 133.5 27 q70.5 0 133.5 -27 q62 -26 109.5 -73 q47.5 -47 73.5 -109 q27 -62 27 -132 q0 -70 -27 -132 q-26 -61 -73.5 -108.5 q-47.5 -47.5 -109.5 -73.5 q-63 -26 -133 -26 Z"></path></symbol><symbol id="baocun" viewBox="0 -212 1024 1024"><path d="M858 789 q36 0 60.5 -27.5 q24.5 -27.5 25.5 -69.5 l0 -551 q0 -5 -1 -10 q-1 -5 -4 -9 l-116 -123 q-9 -4 -14 -5 q-5 -1 -9 -1 l-519 0 q-35 1 -60 27.5 q-25 26.5 -26 64.5 l0 613 q1 38 26 64.5 q25 26.5 60 26.5 l577 0 ZM788 55 l98 104 l0 539 q0 14 -7.5 22 q-7.5 8 -20.5 8 l-577 0 q-12 0 -20 -8 q-8 -8 -8 -22 l0 -613 q0 -14 8 -22 q8 -8 20 -8 l507 0 ZM771 789 q14 0 21.5 -8 q7.5 -8 7.5 -22 l0 -239 q-1 -42 -25.5 -69.5 q-24.5 -27.5 -60.5 -28.5 l-282 0 q-41 1 -66.5 28.5 q-25.5 27.5 -26.5 69.5 l0 239 q0 14 8 22 q8 8 21 8 l403 0 ZM397 520 q0 -15 8.5 -25.5 q8.5 -10.5 26.5 -11.5 l276 0 q17 1 25.5 11.5 q8.5 10.5 8.5 25.5 l0 208 l-345 0 l0 -208 ZM679 300 q31 -1 53.5 -24 q22.5 -23 26.5 -56 l0 -196 q0 -14 -7.5 -22.5 q-7.5 -8.5 -20.5 -8.5 l-317 0 q-13 0 -20.5 8.5 q-7.5 8.5 -8.5 22.5 l0 196 q1 33 22.5 56 q21.5 23 53.5 24 l218 0 ZM702 55 l0 165 q0 5 -4 11 q-4 6 -13 7 l-224 0 q-6 0 -12 -4.5 q-6 -4.5 -6 -13.5 l0 -165 l259 0 ZM627 195 q14 -1 21.5 -10.5 q7.5 -9.5 7.5 -19.5 l0 -31 q0 -13 -7.5 -21.5 q-7.5 -8.5 -20.5 -8.5 q-13 0 -21.5 8.5 q-8.5 8.5 -8.5 21.5 l0 31 q0 14 8.5 22 q8.5 8 20.5 8 Z"></path></symbol><symbol id="yanhouchuli" viewBox="0 -212 1024 1024"><path d="M422 500.1 q-5 5 -8.5 13.5 q-3.5 8.5 -3.5 18.5 q0 5 3.5 13 q3.5 8 8.5 13 q15 9 31.5 9 q16.5 0 26.5 -9 q24 -29 48 -54 q24 -25 48 -49 q10 -9 14.5 -19.5 q4.5 -10.5 4.5 -24.5 l0 -212 q0 -15 -11.5 -26 q-11.5 -11 -26.5 -11 q-15 0 -26.5 11 q-11.5 11 -12.5 26 l0 180 q0 14 -4.5 24.5 q-4.5 10.5 -14.5 19.5 l-77 77 ZM422 500.1 l0 0 ZM550 1.1 q1 -15 9.5 -25.5 q8.5 -10.5 22.5 -6.5 q163 18 268.5 133.5 q105.5 115.5 109.5 282.5 q-4 177 -121.5 294.5 q-117.5 117.5 -294.5 121.5 q-167 -4 -282.5 -109.5 q-115.5 -105.5 -133.5 -268.5 l-26 32 q-10 10 -25 10 q-15 0 -25 -10 q-10 -10 -10 -25 q0 -15 9 -26 l90 -96 q10 -9 25.5 -9 q15.5 0 25.5 9 l90 96 q5 5 8.5 10.5 q3.5 5.5 3.5 15.5 q0 5 -3.5 12.5 q-3.5 7.5 -8.5 12.5 q-11 10 -26 10 q-15 0 -26 -10 l-25 -25 q22 133 122 217.5 q100 84.5 243 83.5 q133 -13 225.5 -103.5 q92.5 -90.5 100.5 -223.5 q1 -147 -87.5 -247 q-88.5 -100 -226.5 -118 q-14 -4 -22.5 -14 q-8.5 -10 -9.5 -24 ZM550 1.1 l0 0 ZM550 455.1 q20 0 32.5 -12.5 q12.5 -12.5 12.5 -31.5 l0 -218 q0 -15 -12.5 -26.5 q-12.5 -11.5 -32.5 -11.5 q-15 0 -26 9.5 q-11 9.5 -12 28.5 l0 218 q1 19 12 31.5 q11 12.5 26 12.5 ZM550 455.1 l0 0 Z"></path></symbol><symbol id="fuzhi" viewBox="0 -212 1024 1024"><path d="M842 -63 q34 1 56 22.5 q22 21.5 22 54.5 l0 508 q0 32 -22 54 q-22 22 -56 22 q-13 0 -22 -9 q-9 -9 -9 -21.5 q0 -12.5 9 -21.5 q9 -9 22 -9 q6 0 11 -4.5 q5 -4.5 5 -10.5 l0 -508 q0 -6 -5 -10.5 q-5 -4.5 -11 -4.5 l-521 0 q-8 0 -12 4.5 q-4 4.5 -4 10.5 q0 13 -9 21.5 q-9 8.5 -22 8.5 q-13 0 -22 -8.5 q-9 -8.5 -9 -21.5 q0 -33 22.5 -54.5 q22.5 -21.5 56.5 -22.5 l520 0 ZM714 62 q34 0 56.5 22 q22.5 22 22.5 55 l0 507 q0 31 -22 53 q-22 22 -56 22 l-521 0 q-33 0 -55.5 -21.5 q-22.5 -21.5 -22.5 -53.5 l0 -509 q0 -31 22 -53 q22 -22 56 -22 l520 0 ZM731 139 q0 -7 -5 -12 q-5 -5 -11 -5 l-521 0 q-6 0 -11 5 q-5 5 -5 12 l0 507 q0 6 5 10.5 q5 4.5 11 4.5 l520 0 q7 0 12 -4.5 q5 -4.5 5 -10.5 l0 -507 ZM591 361 q13 0 22 9 q9 9 8.5 21.5 q-0.5 12.5 -9.5 21.5 q-9 9 -22 9 l-105 0 l0 103 q0 12 -9 21 q-9 9 -22.5 9 q-13.5 0 -22.5 -9 q-9 -9 -9 -21 l0 -103 l-105 0 q-13 0 -22 -9 q-9 -9 -9 -21.5 q0 -12.5 9 -21.5 q9 -9 22 -9 l106 0 l0 -102 q0 -13 9 -22 q9 -9 22.5 -9 q13.5 0 22.5 9 q9 9 9 22 l0 102 l105 0 Z"></path></symbol><symbol id="xiayi" viewBox="0 -212 1024 1024"><path d="M493 574 q-13 -1 -22 -11 l-149 -168 q-8 -9 -7 -21 q1 -12 9.5 -19.5 q8.5 -7.5 19.5 -7.5 l1 0 q13 0 23 9 l97 109 l0 -336 q0 -13 8 -21 q8 -8 21 -8 l0 0 q12 0 21 8 q9 8 9 21 l0 344 l118 -118 q9 -7 20.5 -7 q11.5 0 20 8 q8.5 8 9 20 q0.5 12 -7.5 21 l-168 168 q-10 9 -22 9 l-1 0 ZM503 -3 q-71 0 -134 26 q-62 26 -109.5 73.5 q-47.5 47.5 -73.5 108.5 q-27 62 -27 132 q0 70 27 132 q26 62 73.5 109 q47.5 47 109.5 73 q63 27 133.5 27 q70.5 0 133.5 -27 q62 -26 109.5 -73 q47.5 -47 73.5 -109 q27 -62 27 -132 q0 -70 -27 -132 q-26 -61 -73.5 -108.5 q-47.5 -47.5 -109.5 -73.5 q-63 -26 -133 -26 ZM503 -73 q175 5 291.5 120.5 q116.5 115.5 121.5 289.5 q-5 175 -121.5 290.5 q-116.5 115.5 -291.5 119.5 q-176 -4 -292.5 -119.5 q-116.5 -115.5 -121.5 -290.5 q5 -174 121.5 -289.5 q116.5 -115.5 292.5 -120.5 Z"></path></symbol><symbol id="zuofei" viewBox="0 -212 1024 1024"><path d="M222 91 q-10 -11 -10 -25.5 q0 -14.5 11 -25.5 q11 -11 25 -11 q14 0 26 11 l513 514 q11 10 11 24.5 q0 14.5 -11 25.5 q-11 11 -25.5 11 q-14.5 0 -25.5 -10 l-514 -514 ZM503 -73 q175 5 291.5 120.5 q116.5 115.5 121.5 289.5 q-5 175 -121.5 290.5 q-116.5 115.5 -291.5 119.5 q-176 -4 -292.5 -119.5 q-116.5 -115.5 -121.5 -290.5 q5 -174 121.5 -289.5 q116.5 -115.5 292.5 -120.5 ZM503 -3 q-71 0 -134 26 q-62 26 -109.5 73.5 q-47.5 47.5 -73.5 108.5 q-27 62 -27 132 q0 70 27 132 q26 62 73.5 109 q47.5 47 109.5 73 q63 27 133.5 27 q70.5 0 133.5 -27 q62 -26 109.5 -73 q47.5 -47 73.5 -109 q27 -62 27 -132 q0 -70 -27 -132 q-26 -61 -73.5 -108.5 q-47.5 -47.5 -109.5 -73.5 q-63 -26 -133 -26 Z"></path></symbol><symbol id="wendang" viewBox="0 -212 1024 1024"><path d="M527 266 q11 -1 17.5 -8 q6.5 -7 6.5 -17 q0 -10 -6.5 -17 q-6.5 -7 -17.5 -9 l-253 0 q-12 2 -18.5 9 q-6.5 7 -6 17 q0.5 10 7 17 q6.5 7 17.5 8 l253 0 ZM712 401 q10 -2 16.5 -9 q6.5 -7 6.5 -16.5 q0 -9.5 -6.5 -17 q-6.5 -7.5 -16.5 -9.5 l-438 0 q-11 2 -17 9.5 q-6 7.5 -6 17 q0 9.5 6 16.5 q6 7 17 9 l438 0 ZM712 537 q10 -2 16.5 -9.5 q6.5 -7.5 6.5 -17 q0 -9.5 -6.5 -16.5 q-6.5 -7 -16.5 -10 l-438 0 q-11 3 -17 10 q-6 7 -6 16.5 q0 9.5 6 17 q6 7.5 17 9.5 l438 0 ZM713 -73 l193 184 l-6 548 q-2 44 -33.5 74 q-31.5 30 -79.5 30 l-562 0 q-49 0 -80.5 -30 q-31.5 -30 -32.5 -74 l0 -627 q1 -44 32.5 -74 q31.5 -30 80.5 -31 l488 0 ZM675 111 q0 11 8 18 q8 7 19 7 l142 0 l-169 -156 l0 131 ZM787 711 q24 -1 40 -15.5 q16 -14.5 17 -36.5 l0 -470 l-169 0 q-24 -1 -40 -15.5 q-16 -14.5 -17 -37.5 l0 -156 l-393 0 q-24 1 -40 15.5 q-16 14.5 -17 36.5 l0 627 q1 22 17 36.5 q16 14.5 40 15.5 l562 0 Z"></path></symbol><symbol id="zanting" viewBox="0 -212 1024 1024"><path d="M428 190 q15 0 25 8.5 q10 8.5 11 22.5 l0 313 q-1 14 -11 23 q-10 9 -24.5 9 q-14.5 0 -24 -9 q-9.5 -9 -10.5 -23 l0 -313 q1 -14 10.5 -22.5 q9.5 -8.5 23.5 -8.5 ZM584 190 q14 0 24.5 8.5 q10.5 8.5 10.5 22.5 l0 313 q0 14 -10.5 23 q-10.5 9 -24.5 9 q-14 0 -23.5 -9 q-9.5 -9 -10.5 -23 l0 -313 q0 -14 10 -22.5 q10 -8.5 24 -8.5 ZM507 -36 q175 5 291.5 120.5 q116.5 115.5 121.5 289.5 q-5 175 -121.5 290.5 q-116.5 115.5 -291.5 119.5 q-176 -4 -292.5 -119.5 q-116.5 -115.5 -121.5 -290.5 q5 -174 121.5 -289.5 q116.5 -115.5 292.5 -120.5 ZM507 34 q-71 0 -134 26 q-62 26 -109.5 73.5 q-47.5 47.5 -73.5 108.5 q-27 62 -27 132 q0 70 27 132 q26 62 73.5 109 q47.5 47 109.5 73 q63 27 133.5 27 q70.5 0 133.5 -27 q62 -26 109.5 -73 q47.5 -47 73.5 -109 q27 -62 27 -132 q0 -70 -27 -132 q-26 -61 -73.5 -108.5 q-47.5 -47.5 -109.5 -73.5 q-63 -26 -133 -26 Z"></path></symbol><symbol id="shangyi" viewBox="0 -212 1024 1024"><path d="M513 100 q13 1 22 11 l149 168 q8 9 7 21 q-1 12 -9.5 19.5 q-8.5 7.5 -19.5 7.5 l-1 0 q-13 0 -23 -9 l-97 -109 l0 336 q0 13 -8 21 q-8 8 -21 8 l0 0 q-12 0 -21 -8 q-9 -8 -9 -21 l0 -344 l-118 118 q-9 7 -20.5 7 q-11.5 0 -20 -8 q-8.5 -8 -9 -20 q-0.5 -12 7.5 -21 l168 -168 q10 -9 22 -9 l1 0 ZM503 -3 q-71 0 -134 26 q-62 26 -109.5 73.5 q-47.5 47.5 -73.5 108.5 q-27 62 -27 132 q0 70 27 132 q26 62 73.5 109 q47.5 47 109.5 73 q63 27 133.5 27 q70.5 0 133.5 -27 q62 -26 109.5 -73 q47.5 -47 73.5 -109 q27 -62 27 -132 q0 -70 -27 -132 q-26 -61 -73.5 -108.5 q-47.5 -47.5 -109.5 -73.5 q-63 -26 -133 -26 ZM503 -73 q175 5 291.5 120.5 q116.5 115.5 121.5 289.5 q-5 175 -121.5 290.5 q-116.5 115.5 -291.5 119.5 q-176 -4 -292.5 -119.5 q-116.5 -115.5 -121.5 -290.5 q5 -174 121.5 -289.5 q116.5 -115.5 292.5 -120.5 Z"></path></symbol><symbol id="shanchu" viewBox="0 -212 1024 1024"><path d="M788 129 l-510 0 l0 547 q0 21 16 35.5 q16 14.5 39 15.5 l400 0 q23 -1 39 -15.5 q16 -14.5 16 -35.5 l0 -547 ZM388 68 l290 0 l0 -31 q-1 -10 -12 -11 l-266 0 q-11 1 -12 11 l0 31 ZM955 68 q14 0 23.5 8.5 q9.5 8.5 9.5 21.5 q0 13 -9.5 22 q-9.5 9 -23.5 9 l-99 0 l0 547 q-2 48 -36.5 80 q-34.5 32 -86.5 33 l-400 0 q-52 -1 -86.5 -33 q-34.5 -32 -36.5 -80 l0 -546 l-99 0 q-15 0 -24 -9 q-9 -9 -9 -22.5 q0 -13.5 9.5 -22 q9.5 -8.5 23.5 -8.5 l211 0 l0 -31 q1 -31 23 -51 q22 -20 55 -21 l266 0 q33 1 55.5 21 q22.5 20 22.5 51 l0 31 l211 0 ZM533 634 q-14 -1 -23.5 -9.5 q-9.5 -8.5 -10.5 -21.5 l0 -329 q1 -14 10.5 -23 q9.5 -9 23.5 -9 q14 0 23.5 9 q9.5 9 9.5 23 l0 329 q0 14 -9.5 22 q-9.5 8 -23.5 9 ZM377 634 q-14 -1 -23 -9.5 q-9 -8.5 -10 -21.5 l0 -329 q0 -14 9.5 -23 q9.5 -9 24 -9 q14.5 0 24 9 q9.5 9 9.5 23 l0 329 q-1 14 -10 22 q-9 8 -24 9 ZM688 634 q-14 -1 -23 -9.5 q-9 -8.5 -10 -21.5 l0 -329 q0 -14 9.5 -23 q9.5 -9 24 -9 q14.5 0 23.5 9 q9 9 10 23 l0 329 q-1 14 -10.5 22 q-9.5 8 -23.5 9 Z"></path></symbol><symbol id="dayin" viewBox="0 -212 1024 1024"><path d="M844 99 q35 1 59 25 q24 24 25 61 l0 322 q-1 37 -25 61.5 q-24 24.5 -59 24.5 l-54 2 l0 155 q0 16 -11 27 q-11 11 -27 11 l-483 0 q-16 0 -26.5 -11 q-10.5 -11 -11.5 -27 l0 -154 l-64 -3 q-34 0 -58 -24.5 q-24 -24.5 -25 -61.5 l0 -322 q1 -37 25 -61 q24 -24 60 -25 l71 0 l0 -122 q0 -17 11 -28 q11 -11 28 -12 l477 0 q16 1 27 12 q11 11 11 28 l0 122 l50 0 ZM300 99 l435 0 l0 -101 l-435 0 l0 101 ZM730 489 l-439 0 l0 239 l439 0 l0 -239 ZM869 185 q-1 -11 -7.5 -17.5 q-6.5 -6.5 -17.5 -7.5 l-675 0 q-11 1 -18 7.5 q-7 6.5 -7 17.5 l0 322 q0 11 7 18 q7 7 18 7 l62 3 l0 -68 q0 -15 11 -26.5 q11 -11.5 27 -12.5 l483 0 q16 1 27 12 q11 11 11 27 l0 67 l52 -2 q11 0 18.5 -7 q7.5 -7 8.5 -18 l0 -322 ZM247 306 l279 0 l0 -60 l-279 0 l0 60 Z"></path></symbol><symbol id="heimingdan" viewBox="0 -212 1024 1024"><path d="M739 368 q81 1 135.5 54 q54.5 53 57.5 134 q-2 79 -54 132.5 q-52 53.5 -131 55.5 q-80 0 -133 -52.5 q-53 -52.5 -57 -131.5 q0 -80 51.5 -134 q51.5 -54 130.5 -58 ZM595 556 q0 41 22 75 l209 -185 q-44 -33 -96.5 -29.5 q-52.5 3.5 -92.5 40.5 q-20 19 -31 45 q-11 26 -11 54 l0 0 ZM739 696 q60 0 100.5 -39.5 q40.5 -39.5 43.5 -100.5 q0 -41 -23 -75 l-208 186 q18 14 40.5 21.5 q22.5 7.5 46.5 7.5 ZM579 399 l0 1 q-53 -17 -109 -14 q-125 0 -210.5 80 q-85.5 80 -93.5 204 l-1 0 l0 2 q-1 12 -10 19 q-9 7 -20.5 7 q-11.5 0 -18.5 -8 q-7 -8 -8 -18 l1 -2 l-1 0 q6 -112 71 -197.5 q65 -85.5 171 -122.5 q-59 -30 -93 -84 q-34 -54 -35 -120 q5 -100 72.5 -164 q67.5 -64 165.5 -65 q99 1 166 65.5 q67 64.5 72 163.5 q0 64 -32.5 116.5 q-32.5 52.5 -87.5 83.5 l21 7 l0 1 q8 0 14 4.5 q6 4.5 9 12 q3 7.5 1.5 15 q-1.5 7.5 -8 12.5 q-6.5 5 -14 6 q-7.5 1 -15.5 -3 q-3 0 -7 -1 l0 -1 ZM460 326 q78 -1 130.5 -52 q52.5 -51 54.5 -128 q0 -37 -14.5 -70.5 q-14.5 -33.5 -40.5 -59 q-26 -25.5 -59.5 -38.5 q-33.5 -13 -70.5 -13 q-77 0 -129.5 51 q-52.5 51 -55.5 130 q3 77 55.5 128 q52.5 51 129.5 52 Z"></path></symbol><symbol id="shangchuan" viewBox="0 -212 1024 1024"><path d="M883 556.53 q2 44 -1 88 q-3 44 -28.5 67.5 q-25.5 23.5 -70.5 24.5 q-131 1 -262 0 q-122 0 -244 0 q-56 0 -82.5 -26.5 q-26.5 -26.5 -27.5 -82.5 q-1 -35 1 -70 q2 -20 12 -31 q10 -11 25.5 -11 q15.5 0 25.5 11 q10 11 12 31 q1 15 0.5 30.5 q-0.5 15.5 0.5 30.5 q1 23 11 33 q10 10 33 12 q14 0 27 0 l420 0 q18 1 36 -1 q34 -4 36 -38 q0 -33 0 -67 q2 -19 11.5 -30.5 q9.5 -11.5 25.5 -11.5 q16 0 26.5 10.5 q10.5 10.5 12.5 30.5 ZM285 340.53 q-12 9 -24.5 9 q-12.5 0 -24 -11 q-11.5 -11 -12 -23.5 q-0.5 -12.5 8.5 -24.5 q8 -11 18 -19 l231 -226 l7 -9 q4 -4 8 -6 l6 -1 q21 -17 45 -2 q9 6 17 14 l120 117 q84 83 118 118 q8 8 13 15 l9 14 q-1 27 -17.5 37.5 q-16.5 10.5 -36.5 1.5 q-14 -8 -24 -20 l-185 -180 l0 364 q1 18 -2 35 q-7 27 -36 26.5 q-29 -0.5 -35 -29.5 q-1 -17 -1 -35 l0 -348 l-11 -4 l-162 160 q-14 14 -30 27 Z"></path></symbol><symbol id="xiugai" viewBox="0 -212 1024 1024"><path d="M911 260 q14 0 22.5 9 q8.5 9 8.5 22 l0 374 q-1 40 -28 65.5 q-27 25.5 -67 26.5 l-662 0 q-41 -1 -67.5 -26.5 q-26.5 -25.5 -27.5 -65.5 l0 -611 q1 -39 27.5 -64.5 q26.5 -25.5 67.5 -26.5 l425 0 q14 0 23.5 9 q9.5 9 9.5 23 q0 14 -9.5 22.5 q-9.5 8.5 -23.5 8.5 l-421 0 q-13 0 -22.5 9 q-9.5 9 -9.5 21 l0 604 q0 13 9.5 21.5 q9.5 8.5 22.5 8.5 l656 0 q14 0 22.5 -8.5 q8.5 -8.5 8.5 -21.5 l0 -371 q1 -12 10 -21 q9 -9 23 -9 l2 1 ZM921 -2 q12 12 18.5 26.5 q6.5 14.5 6.5 31.5 q0 29 -20 49 l-415 398 q-4 2 -9 2 l-152 41 q-4 1 -9 0 q-12 0 -21 -7 q-12 -13 -9 -30 l41 -149 l2 -4 q1 -1 2 -1 l414 -399 q22 -20 51 -20 q18 0 33.5 6.5 q15.5 6.5 28.5 18.5 l38 37 ZM448 459 l-46 -45 l-18 61 l64 -16 ZM792 143 l-60 -58 l-293 280 l60 58 l293 -280 ZM879 60 q4 -4 3.5 -9.5 q-0.5 -5.5 -6.5 -10.5 l-39 -38 q-5 -4 -11 -4 q-5 0 -7 3 l-39 37 l63 57 l37 -36 l-1 1 Z"></path></symbol><symbol id="shezhi" viewBox="0 -212 1024 1024"><path d="M561 446.63 q77 -1 128 -50.5 q51 -49.5 53 -124.5 q-2 -75 -53 -124.5 q-51 -49.5 -128 -51.5 q-78 2 -129 51.5 q-51 49.5 -53 124.5 q2 74 53 124 q51 50 129 51 ZM561 165.63 q46 1 77 31 q31 30 32 75 q-1 43 -32 74 q-31 31 -77 32 q-46 -1 -77 -32 q-31 -31 -33 -74 q2 -45 33 -75 q31 -30 77 -31 ZM425 700.63 q20 0 38 -9.5 q18 -9.5 29 -29.5 q11 -17 29 -25.5 q18 -8.5 38.5 -8.5 q20.5 0 38 9 q17.5 9 29.5 25 q20 22 46.5 30.5 q26.5 8.5 54.5 -0.5 q35 -14 68.5 -32 q33.5 -18 61.5 -40 q22 -17 28 -44 q6 -27 -5 -54 q-9 -18 -7.5 -37 q1.5 -19 11 -35 q9.5 -16 26 -26.5 q16.5 -10.5 36.5 -12.5 q29 -3 49 -21 q20 -18 26 -46 q6 -36 6 -72 q0 -18 -2 -38 q-2 -20 -4 -38 q-5 -27 -25 -45 q-20 -18 -50 -22 q-19 -2 -36 -12.5 q-17 -10.5 -26.5 -26.5 q-9.5 -16 -10 -34.5 q-0.5 -18.5 6.5 -37.5 q11 -26 5 -52 q-6 -26 -28 -45 q-60 -45 -130 -73 q-28 -9 -54.5 -0.5 q-26.5 8.5 -44.5 30.5 q-11 17 -29 25.5 q-18 8.5 -39 8.5 q-21 0 -38 -8.5 q-17 -8.5 -28 -25.5 q-20 -22 -47 -30.5 q-27 -8.5 -54 0.5 q-70 28 -131 73 q-24 18 -30.5 44.5 q-6.5 26.5 4.5 54.5 q10 18 8 37 q-2 19 -11 35.5 q-9 16.5 -25.5 27 q-16.5 10.5 -37.5 13.5 q-28 2 -48.5 20 q-20.5 18 -26.5 46 q-5 37 -6 73 q0 18 2.5 37.5 q2.5 19.5 10.5 38.5 q5 27 24.5 45 q19.5 18 50.5 21 q18 3 35.5 12.5 q17.5 9.5 27 26 q9.5 16.5 10 35.5 q0.5 19 -7.5 37 q-11 26 -5 52.5 q6 26.5 28 45.5 q60 45 132 71 q14 7 27 7 l0 0 ZM422 -88.37 q4 1 13 5 q22 31 55 46 q33 15 71 15 q38 0 70.5 -16.5 q32.5 -16.5 54.5 -46.5 q3 -2 7 -5.5 q4 -3.5 8 -0.5 q32 11 60 25.5 q28 14.5 53 34.5 q9 5 4 16 q-16 34 -14.5 69 q1.5 35 21 66.5 q19.5 31.5 50 51 q30.5 19.5 68.5 24.5 q6 0 9.5 2 q3.5 2 3.5 7 q6 32 7 63 q-1 16 -3 31 l-4 31 q0 3 -3.5 5.5 q-3.5 2.5 -9.5 2.5 q-38 5 -68.5 24.5 q-30.5 19.5 -50.5 51.5 q-19 30 -20.5 65.5 q-1.5 35.5 14.5 70.5 q1 9 -4 15 q-48 41 -109 63 q-5 2 -8.5 -0.5 q-3.5 -2.5 -6.5 -4.5 q-23 -30 -55.5 -45.5 q-32.5 -15.5 -70.5 -15.5 q-38 0 -70.5 17 q-32.5 17 -55.5 46 q-3 3 -7 6 q-4 3 -9 1 q-31 -11 -59 -26 q-28 -15 -54 -35 q-8 -5 -3 -15 q17 -35 15 -69.5 q-2 -34.5 -21.5 -66.5 q-19.5 -32 -50 -51.5 q-30.5 -19.5 -68.5 -24.5 q-5 0 -9 -2 q-4 -2 -4 -7 q-6 -32 -6 -63 q0 -16 2 -30 l4 -32 q0 -3 4 -5.5 q4 -2.5 9 -2.5 q38 -5 68.5 -24.5 q30.5 -19.5 50.5 -51.5 q19 -30 21 -65.5 q2 -35.5 -15 -70.5 q-1 -3 -1 -7.5 q0 -4.5 1 -7.5 q27 -20 55 -35 q28 -15 59 -28 l2 0 l0 0 Z"></path></symbol><symbol id="shenhe" viewBox="0 -212 1024 1024"><path d="M970 585 q18 0 30 12.5 q12 12.5 12 30.5 l0 46 q0 20 -12 31.5 q-12 11.5 -30 11.5 l-322 0 q-18 0 -29.5 -11.5 q-11.5 -11.5 -12.5 -30.5 l0 -47 q1 -18 12.5 -30.5 q11.5 -12.5 29.5 -13.5 l68 0 l55 -83 q-24 -12 -39 -34.5 q-15 -22.5 -15 -51.5 q1 -41 27 -67.5 q26 -26.5 65 -28.5 q39 2 65.5 28.5 q26.5 26.5 27.5 67.5 q0 29 -15 51.5 q-15 22.5 -39 34.5 l54 84 l68 0 ZM754 415 q0 21 13 36.5 q13 15.5 34 19.5 l9 0 q23 0 38.5 -16 q15.5 -16 15.5 -40 q0 -24 -16 -41 q-16 -17 -39 -16.5 q-23 0.5 -39 17 q-16 16.5 -16 40.5 ZM761 585 l97 0 l-48 -75 l-49 75 ZM976 675 l0 -47 q-1 -5 -6 -5 l-321 0 q-5 0 -6 5 l0 47 q1 4 6 5 l321 0 q5 -1 5 -5 l1 0 ZM435 705 q15 0 25 -9.5 q10 -9.5 10 -22 q0 -12.5 -10 -21.5 q-10 -9 -25 -9 l-220 0 q-15 0 -25.5 -8.5 q-10.5 -8.5 -12.5 -22.5 l0 -641 q2 -14 12.5 -22 q10.5 -8 25.5 -9 l537 0 q16 0 26.5 8.5 q10.5 8.5 11.5 22.5 l0 283 q3 10 10.5 16.5 q7.5 6.5 18.5 9.5 q6 2 20 -3.5 q14 -5.5 18 -22.5 l0 -283 q5 -41 -26 -67 q-31 -26 -77 -27 l-539 0 q-46 0 -77.5 26.5 q-31.5 26.5 -26.5 67.5 l0 641 q-5 41 26.5 67 q31.5 26 77.5 26 l220 0 ZM395 485 q14 -1 24 -10.5 q10 -9.5 10 -24.5 q0 -15 -10 -25 q-10 -10 -24 -10 l-91 0 q-15 0 -24.5 10 q-9.5 10 -10 25 q-0.5 15 9.5 24.5 q10 9.5 25 10.5 l91 0 ZM656 306 q14 0 24 -10 q10 -10 10 -24.5 q0 -14.5 -9.5 -24.5 q-9.5 -10 -24.5 -11 l-352 0 q-15 1 -24.5 10.5 q-9.5 9.5 -10 24.5 q-0.5 15 9.5 25 q10 10 25 10 l352 0 ZM656 128 q14 0 24 -10 q10 -10 10 -25 q0 -15 -9.5 -24.5 q-9.5 -9.5 -24.5 -10.5 l-352 0 q-15 1 -24.5 10.5 q-9.5 9.5 -10 24.5 q-0.5 15 9.5 24.5 q10 9.5 25 10.5 l352 0 Z"></path></symbol><symbol id="uniE7F1" viewBox="0 -212 1024 1024"><path d="M799 709 q23 0 38.5 -12 q15.5 -12 15.5 -29 q0 -17 -15.5 -28.5 q-15.5 -11.5 -38.5 -12.5 l-383 0 q-23 1 -38.5 12.5 q-15.5 11.5 -15.5 28.5 q0 17 15.5 29 q15.5 12 38.5 12 l383 0 ZM799 1 q23 0 38.5 -12 q15.5 -12 15.5 -29 q0 -17 -15.5 -29 q-15.5 -12 -38.5 -12 l-383 0 q-23 0 -38.5 12 q-15.5 12 -15.5 29 q0 17 15.5 29 q15.5 12 38.5 12 l383 0 ZM603 345 q23 0 38 -11 q15 -11 15 -27 q0 -16 -15 -27 q-15 -11 -38 -11 l-478 0 q-22 0 -37 11 q-15 11 -15 27 q0 16 15 27 q15 11 37 11 l478 0 ZM463 384 l0 0 ZM504 104 q-34 -33 -67 -9 q-33 24 -9 63 l142 181 q32 33 65.5 9 q33.5 -24 9.5 -64 l-141 -180 ZM428 462 q-24 40 9 63.5 q33 23.5 67 -9.5 l141 -181 q24 -39 -9 -63 q-33 -24 -66 8 l-142 182 ZM777 654 q0 22 11 36.5 q11 14.5 27 14.5 q16 0 27 -14.5 q11 -14.5 11 -36.5 l0 -679 q0 -23 -11 -37.5 q-11 -14.5 -27 -14.5 q-16 0 -27 14.5 q-11 14.5 -11 37.5 l0 679 ZM108 -7 l0 0 Z"></path></symbol><symbol id="remove" viewBox="0 -212 1024 1024"><path d="M545 719 q23 0 38.5 -12 q15.5 -12 15.5 -29 q0 -17 -15.5 -28.5 q-15.5 -11.5 -38.5 -12.5 l-383 0 q-23 1 -38.5 12.5 q-15.5 11.5 -15.5 28.5 q0 17 15.5 29 q15.5 12 38.5 12 l383 0 ZM545 11 q23 0 38.5 -12 q15.5 -12 15.5 -29 q0 -17 -15.5 -29 q-15.5 -12 -38.5 -12 l-383 0 q-23 0 -38.5 12 q-15.5 12 -15.5 29 q0 17 15.5 29 q15.5 12 38.5 12 l383 0 ZM825 355 q23 0 38 -11 q15 -11 15 -27 q0 -16 -15 -27 q-15 -11 -38 -11 l-478 0 q-22 0 -37 11 q-15 11 -15 27 q0 16 15 27 q15 11 37 11 l478 0 ZM463 376 l0 0 ZM726 114 q-34 -33 -67 -9 q-33 24 -9 63 l142 181 q32 33 65.5 9 q33.5 -24 9.5 -64 l-141 -180 ZM650 472 q-24 40 9 63.5 q33 23.5 67 -9.5 l141 -181 q24 -39 -9 -63 q-33 -24 -66 8 l-142 182 ZM108 664 q0 22 11 36.5 q11 14.5 27 14.5 q16 0 27 -14.5 q11 -14.5 11 -36.5 l0 -679 q0 -23 -11 -37.5 q-11 -14.5 -27 -14.5 q-16 0 -27 14.5 q-11 14.5 -11 37.5 l0 679 ZM108 -15 l0 0 Z"></path></symbol><symbol id="yuanyin" viewBox="0 -212 1024 1024"><path d="M638 167 q18 27 18 58 q0 25 -10 43.5 q-10 18.5 -24 32.5 q-25 23 -49 45 q-11 8 -17 15 q-6 7 -8.5 12.5 q-2.5 5.5 -4.5 11.5 l-4 20 q-6 30 -35 30 q-15 0 -25.5 -10 q-10.5 -10 -10.5 -30 q0 -21 8 -41 q7 -18 19.5 -31.5 q12.5 -13.5 33.5 -32.5 q19 -16 27 -24 q8 -8 14 -18.5 q6 -10.5 6 -21.5 q0 -23 -17.5 -39 q-17.5 -16 -44.5 -16 q-32 0 -47 16 q-15 16 -25.5 48 q-10.5 32 -37.5 32 q-16 0 -27.5 -11.5 q-11.5 -11.5 -11.5 -25.5 q0 -27 18 -55 q18 -28 52 -46.5 q34 -18.5 79 -18.5 q42 0 74 15.5 q32 15.5 50 41.5 ZM511 461 q18 0 30.5 12.5 q12.5 12.5 12.5 30.5 q0 20 -13 31.5 q-13 11.5 -30.5 11.5 q-17.5 0 -30.5 -11.5 q-13 -11.5 -13 -31.5 q0 -18 13 -30.5 q13 -12.5 31 -12.5 ZM503 -73 q175 5 291.5 120.5 q116.5 115.5 121.5 289.5 q-5 175 -121.5 290.5 q-116.5 115.5 -291.5 119.5 q-176 -4 -292.5 -119.5 q-116.5 -115.5 -121.5 -290.5 q5 -174 121.5 -289.5 q116.5 -115.5 292.5 -120.5 ZM503 -3 q-71 0 -134 26 q-62 26 -109.5 73.5 q-47.5 47.5 -73.5 108.5 q-27 62 -27 132 q0 70 27 132 q26 62 73.5 109 q47.5 47 109.5 73 q63 27 133.5 27 q70.5 0 133.5 -27 q62 -26 109.5 -73 q47.5 -47 73.5 -109 q27 -62 27 -132 q0 -70 -27 -132 q-26 -61 -73.5 -108.5 q-47.5 -47.5 -109.5 -73.5 q-63 -26 -133 -26 Z"></path></symbol><symbol id="peisong" viewBox="0 -212 1024 1024"><path d="M614 653 q12 0 20 -8.5 q8 -8.5 8 -19.5 l0 -543 q-1 -32 -22 -53.5 q-21 -21.5 -54 -22.5 l-433 0 q-32 1 -53.5 22.5 q-21.5 21.5 -22.5 53.5 l0 543 q0 12 8.5 20 q8.5 8 20.5 8 q12 0 20 -8 q8 -8 8 -20 l0 -543 q0 -8 5.5 -13.5 q5.5 -5.5 13.5 -5.5 l433 0 q8 0 13.5 5.5 q5.5 5.5 5.5 13.5 l0 543 q1 11 9 19.5 q8 8.5 20 8.5 ZM135 653 q12 0 20 -8 q8 -8 8 -20 q0 -12 -8 -20 q-8 -8 -20 -9 l-45 0 q-12 1 -20 9 q-8 8 -8 20 q0 12 8 20 q8 8 20 8 l45 0 ZM697 653 q12 0 20 -8 q8 -8 8 -20 q0 -12 -8 -20 q-8 -8 -20 -9 l-371 0 q-12 1 -20 9 q-8 8 -8 20 q0 12 8 20 q8 8 20 8 l371 0 ZM933 653 q12 0 20 -8.5 q8 -8.5 8 -19.5 l0 -269 q0 -23 -15 -40 l-151 -172 q-18 -19 -45 -20 l-132 0 q-16 1 -24 15 q-8 14 0 28 q8 14 24 14 l132 0 q1 0 2 1 l152 172 q0 1 0 2 l0 240 l-16 0 q-12 1 -20 9 q-8 8 -8 20 q0 12 8 20 q8 8 20 8 l45 0 ZM843 417 q12 0 20 -8 q8 -8 8 -20 q0 -12 -8 -20.5 q-8 -8.5 -20 -8.5 l-106 0 l0 -106 q-1 -12 -9 -20 q-8 -8 -20 -8 q-12 0 -20 8 q-8 8 -8 20 l0 135 q0 11 8 19.5 q8 8.5 20 8.5 l135 0 ZM231 754 q52 -2 86.5 -36.5 q34.5 -34.5 36.5 -87.5 q-2 -52 -36.5 -87 q-34.5 -35 -86.5 -36 q-53 1 -87.5 36 q-34.5 35 -36.5 87 q2 53 36.5 87.5 q34.5 34.5 87.5 36.5 ZM231 564 q28 1 46.5 19.5 q18.5 18.5 18.5 46.5 q0 28 -18.5 47 q-18.5 19 -46.5 20 q-28 -2 -45.5 -20.5 q-17.5 -18.5 -17.5 -46 q0 -27.5 17.5 -46 q17.5 -18.5 45.5 -20.5 ZM792 754 q53 -2 87.5 -36.5 q34.5 -34.5 36.5 -87.5 q-2 -52 -36.5 -87 q-34.5 -35 -87.5 -36 q-52 1 -86.5 36 q-34.5 35 -36.5 87 q2 53 36.5 87.5 q34.5 34.5 86.5 36.5 ZM792 564 q29 1 47.5 19.5 q18.5 18.5 18.5 46.5 q0 28 -18.5 47 q-18.5 19 -47.5 20 q-27 -2 -44.5 -20.5 q-17.5 -18.5 -17.5 -46 q0 -27.5 17.5 -46 q17.5 -18.5 44.5 -20.5 Z"></path></symbol><symbol id="huifuzhihang" viewBox="0 -212 1024 1024"><path d="M368 255.72 l-98 -98 q44 -43 101 -68 q57 -25 123 -26 q130 2 220.5 87 q90.5 85 101.5 215 q3 143 -88 238.5 q-91 95.5 -232 99.5 q-59 0 -111 -19.5 q-52 -19.5 -94 -54.5 q-10 -8 -22 -7 q-12 1 -21.5 10 q-9.5 9 -9 22.5 q0.5 13.5 11.5 22.5 q50 43 112.5 66.5 q62.5 23.5 133.5 23.5 q170 -5 279.5 -121 q109.5 -116 104.5 -289 q-13 -144 -111 -243.5 q-98 -99.5 -243 -114.5 q-89 -5 -166.5 24.5 q-77.5 29.5 -135.5 87.5 l-96 -96 l0 240 l240 0 Z"></path></symbol><symbol id="jisuan" viewBox="0 -212 1024 1024"><path d="M322 487 q12 0 19.5 -8 q7.5 -8 8.5 -20 l0 -149 q-1 -12 -8.5 -20 q-7.5 -8 -19.5 -8 q-12 0 -20 8 q-8 8 -9 20 l0 149 q1 12 9 20 q8 8 20 8 ZM396 412 q12 0 20 -7.5 q8 -7.5 8 -19.5 q0 -12 -8 -20.5 q-8 -8.5 -20 -8.5 l-149 0 q-12 0 -19.5 8.5 q-7.5 8.5 -7.5 20.5 q0 12 7.5 19.5 q7.5 7.5 19.5 7.5 l149 0 ZM403 612 q-12 -1 -20 -9 q-8 -8 -8 -19.5 q0 -11.5 8 -19.5 l210 -212 q9 -8 20 -7.5 q11 0.5 19 8.5 q8 8 8 19 q0 11 -7 20 l-210 211 q-9 8 -20 9 ZM592 553 q1 -12 8.5 -20 q7.5 -8 19.5 -9 l149 0 q12 1 19.5 9 q7.5 8 7.5 20 q0 12 -7.5 19.5 q-7.5 7.5 -19.5 8.5 l-149 0 q-12 -1 -19.5 -8.5 q-7.5 -7.5 -8.5 -19.5 ZM243 -73 q-56 2 -93 42.5 q-37 40.5 -39 102.5 l0 576 q2 62 39 102.5 q37 40.5 93 41.5 l529 0 q56 -1 93 -41.5 q37 -40.5 39 -102.5 l0 -576 q-2 -62 -39 -102.5 q-37 -40.5 -93 -42.5 l-529 0 ZM773 -5 q28 1 47 22.5 q19 21.5 21 51.5 l0 584 q-2 30 -21 51 q-19 21 -47 22 l-532 0 q-28 -1 -47.5 -22 q-19.5 -21 -20.5 -51 l0 -584 q1 -30 20.5 -51.5 q19.5 -21.5 47.5 -22.5 l532 0 ZM111 195 l761 0 l0 -60 l-761 0 l0 60 Z"></path></symbol><symbol id="queren" viewBox="0 -212 1024 1024"><path d="M512 322 l0 0 ZM468 409 l-106 -103 q-12 -8 -25.5 -7 q-13.5 1 -23.5 12 q-10 11 -9.5 25 q0.5 14 11.5 25 l131 127 q11 8 24 7.5 q13 -0.5 23 -9.5 l253 -244 q9 -12 8.5 -25.5 q-0.5 -13.5 -11.5 -24 q-11 -10.5 -25 -10 q-14 0.5 -25 10.5 l-225 216 ZM513 -71 q175 5 291.5 120.5 q116.5 115.5 121.5 289.5 q-5 175 -121.5 290.5 q-116.5 115.5 -291.5 119.5 q-176 -4 -292.5 -119.5 q-116.5 -115.5 -121.5 -290.5 q5 -174 121.5 -289.5 q116.5 -115.5 292.5 -120.5 ZM513 -1 q-71 0 -134 26 q-62 26 -109.5 73.5 q-47.5 47.5 -73.5 108.5 q-27 62 -27 132 q0 70 27 132 q26 62 73.5 109 q47.5 47 109.5 73 q63 27 133.5 27 q70.5 0 133.5 -27 q62 -26 109.5 -73 q47.5 -47 73.5 -109 q27 -62 27 -132 q0 -70 -27 -132 q-26 -61 -73.5 -108.5 q-47.5 -47.5 -109.5 -73.5 q-63 -26 -133 -26 Z"></path></symbol><symbol id="jiagongdan" viewBox="0 -212 1024 1024"><path d="M636 425.95 q-22 47 -15 97 q7 50 43 89 q22 23 50 34.5 q28 11.5 59 11.5 q26 1 50 -9 l91 96 q18 18 43 19 q25 1 45 -18 l2 -1 q19 -21 19 -48 q0 -27 -19 -49 l-90 -96 q14 -44 4.5 -88 q-9.5 -44 -40.5 -79 q-20 -22 -48 -33.5 q-28 -11.5 -58 -11.5 q-35 -1 -68 15 q-10 6 -12.5 17 q-2.5 11 6.5 20 l74 78 l-26 27 l-75 -77 q-6 -7 -15 -7 q-14 0 -20 13 ZM693 579.95 q-20 -20 -27.5 -46.5 q-7.5 -26.5 -3.5 -55.5 l51 53 q13 14 31 14 q18 0 31 -14 l26 -27 q13 -14 13 -32 q0 -18 -13 -32 l-51 -53 l20 -2 q22 0 42 8.5 q20 8.5 36 25.5 q22 25 29 56.5 q7 31.5 -3 62.5 q-5 12 -1.5 25 q3.5 13 13.5 24 l92 96 q7 7 7 16 q0 9 -6.5 16 q-6.5 7 -15 7 q-8.5 0 -15.5 -7 l-93 -96 q-14 -13 -32 -14 q-5 0 -15 3 q-18 6 -39 6 q-21 0 -41 -8.5 q-20 -8.5 -35 -25.5 ZM485 468.95 q14 -1 24 -10.5 q10 -9.5 10 -24.5 q0 -15 -10 -25 q-10 -10 -24 -10 l-91 0 q-15 0 -24.5 10 q-9.5 10 -10 25 q-0.5 15 9.5 24.5 q10 9.5 25 10.5 l91 0 ZM746 289.95 q14 0 24 -10 q10 -10 10 -24.5 q0 -14.5 -9.5 -24.5 q-9.5 -10 -24.5 -11 l-352 0 q-15 1 -24.5 10.5 q-9.5 9.5 -10 24.5 q-0.5 15 9.5 25 q10 10 25 10 l352 0 ZM746 111.95 q14 0 24 -10 q10 -10 10 -25 q0 -15 -9.5 -24.5 q-9.5 -9.5 -24.5 -10.5 l-352 0 q-15 1 -24.5 10.5 q-9.5 9.5 -10 24.5 q-0.5 15 9.5 24.5 q10 9.5 25 10.5 l352 0 ZM521 703.95 q15 0 25 -9.5 q10 -9.5 10 -22 q0 -12.5 -10 -21.5 q-10 -9 -25 -9 l-220 0 q-15 0 -25.5 -8.5 q-10.5 -8.5 -12.5 -22.5 l0 -641 q2 -14 12.5 -22 q10.5 -8 25.5 -9 l537 0 q16 0 26.5 8.5 q10.5 8.5 11.5 22.5 l0 283 q3 10 10.5 16.5 q7.5 6.5 18.5 9.5 q6 2 20 -3.5 q14 -5.5 18 -22.5 l0 -283 q5 -41 -26 -67 q-31 -26 -77 -27 l-539 0 q-46 0 -77.5 26.5 q-31.5 26.5 -27.5 67.5 l0 641 q-4 41 27.5 67 q31.5 26 77.5 26 l220 0 Z"></path></symbol><symbol id="uniE7F2" viewBox="0 -212 1024 1024"><path d="M671 448 q12 13 12 28 q0 15 -11.5 26.5 q-11.5 11.5 -26.5 11.5 q-15 0 -27 -12 l-106 -107 l-106 107 q-12 12 -27 12 q-15 0 -26.5 -11.5 q-11.5 -11.5 -11.5 -26.5 q0 -15 12 -28 l106 -108 l-106 -107 q-12 -13 -12 -28 q0 -15 11.5 -26.5 q11.5 -11.5 26.5 -11.5 q15 0 27 12 l106 107 l106 -107 q12 -12 27 -12 q15 0 26.5 11.5 q11.5 11.5 11.5 26.5 q0 15 -12 28 l-106 107 l106 108 ZM513 -70 q175 5 291.5 120.5 q116.5 115.5 121.5 289.5 q-5 175 -121.5 290.5 q-116.5 115.5 -291.5 119.5 q-176 -4 -292.5 -119.5 q-116.5 -115.5 -121.5 -290.5 q5 -174 121.5 -289.5 q116.5 -115.5 292.5 -120.5 ZM513 0 q-71 0 -134 26 q-62 26 -109.5 73.5 q-47.5 47.5 -73.5 108.5 q-27 62 -27 132 q0 70 27 132 q26 62 73.5 109 q47.5 47 109.5 73 q63 27 133.5 27 q70.5 0 133.5 -27 q62 -26 109.5 -73 q47.5 -47 73.5 -109 q27 -62 27 -132 q0 -70 -27 -132 q-26 -61 -73.5 -108.5 q-47.5 -47.5 -109.5 -73.5 q-63 -26 -133 -26 Z"></path></symbol><symbol id="ren" viewBox="0 -212 1024 1024"><path d="M713 181 q27 27 26 51 q1 20 -35 40 q-5 3 -8 10 q-17 48 -34.5 66.5 q-17.5 18.5 -44.5 28.5 q-13 8 -11 22 l11 40 l-79 64 l-74 -61 l3 -5 l8 -39 q3 -12 -9 -20 q-28 -13 -44 -29.5 q-16 -16.5 -38 -68.5 q-2 -5 -8 -8 q-34 -23 -33 -40 q0 -20 28 -51 q2 -3 3 -8 l3 0 q72 -11 148 -20 q69 -9 108 -32 q21 25 39 37.5 q18 12.5 40 20.5 l1 2 ZM713 127 q-11 -6 -20 -11 q-18 -15 -44 -48 q-4 -3 -9.5 -3.5 q-5.5 -0.5 -9.5 2.5 q-33 27 -111.5 36.5 q-78.5 9.5 -154.5 23.5 q23 -151 167.5 -151 q144.5 0 181.5 151 ZM641 482 q104 29 148 64 q26 22 48 45 q22 23 20 54 l-3 91 l-619 0 l0 -95 q0 -27 18 -47 q21 -25 48 -47 q39 -28 136 -63 l93 70 q7 7 16 0 l95 -72 ZM532 -81 q-96 0 -152 53 q-56 53 -68 156 q-37 42 -37 80 q0 41 51 76 q25 57 49 83 q19 20 45 35 l-3 18 q-113 43 -162 81 q-33 27 -60 61.5 q-27 34.5 -27 77.5 l0 131 q0 8 6 14 q6 6 17 6 l708 0 q8 0 14 -5 q6 -5 7 -15 l6 -125 q1 -51 -33 -91 q-27 -28 -56 -54 q-56 -47 -173 -81 l-5 -18 q27 -13 49 -35 q25 -28 44 -83 q53 -30 54 -76 q-1 -41 -37 -80 q-41 -207 -237 -209 Z"></path></symbol><symbol id="shoudong" viewBox="0 -212 1024 1024"><path d="M822 148 q-28 0 -52 14 q-11 -27 -34.5 -43.5 q-23.5 -16.5 -54.5 -16.5 l-3 0 q-26 0 -48 12 q-9 -31 -34 -50 q-25 -19 -59 -20 l-2 0 q-24 0 -45 11 l0 -87 q-1 -41 -28 -68 q-27 -27 -68 -28 l-3 0 q-41 1 -68 28 q-27 27 -28 68 l0 329 q0 6 -4 10 q-4 4 -10 4.5 q-6 0.5 -10 -3.5 l-40 -39 q-30 -25 -67 -23 q-37 2 -63 31 l-9 10 q-23 26 -24.5 58.5 q-1.5 32.5 18.5 60.5 l195 268 q35 47 86 73.5 q51 26.5 111 26.5 l199 0 q103 -3 172 -71.5 q69 -68.5 72 -172.5 l0 -286 q-1 -41 -28.5 -68 q-27.5 -27 -68.5 -28 l-2 0 ZM131 384 q-11 -13 -10 -28.5 q1 -15.5 13 -28.5 l9 -9 q12 -13 32 -14 q20 -1 33 12 l37 32 q19 17 42.5 16.5 q23.5 -0.5 40 -17 q16.5 -16.5 16.5 -39.5 l0 -305 q1 -21 15.5 -34 q14.5 -13 34.5 -14 l3 0 q22 1 35.5 14 q13.5 13 14.5 34 l0 287 q2 17 19 17 q17 0 20 -17 l0 -127 q0 -20 14 -33.5 q14 -13.5 36 -13.5 l2 0 q21 0 35.5 13.5 q14.5 13.5 14.5 33.5 l0 158 q3 19 19.5 19 q16.5 0 18.5 -19 l0 -105 q1 -20 15.5 -33 q14.5 -13 34.5 -14 l3 0 q22 1 35.5 14 q13.5 13 14.5 33 l0 138 q2 17 19 17 q17 0 20 -17 l0 -95 q0 -20 14 -33 q14 -13 36 -14 l2 0 q21 1 35.5 14 q14.5 13 14.5 33 l0 266 q-2 78 -57 130 q-55 52 -138 54 l-195 0 q-48 0 -89 -19.5 q-41 -19.5 -69 -56.5 l-191 -249 Z"></path></symbol><symbol id="ziyuan" viewBox="0 -212 1024 1024"><path d="M568 794.61 q157 -1 248 -89.5 q91 -88.5 103 -252.5 q5 -77 2 -173 l-2 -111 q-5 -42 -36 -69 q-31 -27 -77 -27 q-16 0 -31 5 l0 -40 q-3 -42 -32.5 -69 q-29.5 -27 -74.5 -28 q-18 0 -36 6 q-12 -33 -40.5 -52 q-28.5 -19 -65 -17.5 q-36.5 1.5 -64.5 22.5 q-28 21 -37 55 q-17 -5 -34 -5 q-43 0 -73.5 27 q-30.5 27 -33.5 69 l0 212 q-8 -7 -17 -12 q-23 -14 -50 -16 q-27 -2 -53 8 q-26 10 -43 30 q-17 20 -24 45 q-8 44 9.5 80.5 q17.5 36.5 42.5 63.5 q45 55 82 115 l20 31 q27 51 65 95 q33 35 75 58 q42 23 91 32 q42 7 86 7 ZM208 298.61 q11 -1 21 5 q24 14 40 36 q9 9 15 20 l4 4 q4 11 13 17.5 q9 6.5 22 6.5 q15 -1 25.5 -11 q10.5 -10 10.5 -24 l0 -307 q2 -13 11 -20.5 q9 -7.5 21.5 -7.5 q12.5 0 21.5 7.5 q9 7.5 11 20.5 l0 302 q0 15 11 24.5 q11 9.5 26.5 9.5 q15.5 0 25.5 -9.5 q10 -9.5 12 -24.5 l0 -375 q1 -12 10 -19.5 q9 -7.5 21.5 -7.5 q12.5 0 21.5 7.5 q9 7.5 11 19.5 l0 375 q1 21 19 30.5 q18 9.5 36 0 q18 -9.5 19 -30.5 l0 -310 q1 -12 10 -19.5 q9 -7.5 22 -7.5 q13 0 22 7.5 q9 7.5 10 19.5 l0 310 q2 15 12 24.5 q10 9.5 25.5 9.5 q15.5 0 26 -9.5 q10.5 -9.5 11.5 -24.5 l0 -179 q1 -12 10 -19 q9 -7 23 -6.5 q14 0.5 25.5 8.5 q11.5 8 12 18.5 q0.5 10.5 2 107 q1.5 96.5 -2.5 169.5 q-3 101 -62 186.5 q-59 85.5 -216 91.5 q-37 1 -73 -6 q-36 -7 -67.5 -24 q-31.5 -17 -55.5 -43 q-34 -38 -57 -83 l-20 -32 q-40 -65 -88 -123 q-17 -20 -29 -42 q-12 -22 -7 -44 q3 -18 22 -26 q7 -3 15 -3 ZM284 353.61 l0 0 ZM537 572.61 q104 0 203 -25 q14 -5 21.5 -17 q7.5 -12 3.5 -26.5 q-4 -14.5 -17 -21.5 q-13 -7 -27 -4 q-151 36 -237 23 q-86 -13 -88 -17 q-15 -6 -28.5 -0.5 q-13.5 5.5 -19.5 19.5 q-6 14 -0.5 26.5 q5.5 12.5 20.5 19.5 q82 25 169 23 Z"></path></symbol><symbol id="uniE7F3" viewBox="0 -212 1024 1024"><path d="M803 586 q13 0 22 -8.5 q9 -8.5 9 -22.5 q0 -14 -9 -22.5 q-9 -8.5 -22 -8.5 l-591 0 l0 -592 q0 -14 -8.5 -23 q-8.5 -9 -22.5 -9 q-14 0 -22.5 9 q-8.5 9 -8.5 23 l0 623 q0 14 8.5 22.5 q8.5 8.5 22.5 8.5 l622 0 ZM678 773 q13 0 22 -10 l186 -187 q10 -8 10 -21 q0 -13 -10 -22 l-186 -187 q-9 -9 -21.5 -9 q-12.5 0 -22 9 q-9.5 9 -9.5 22 q0 13 10 21 l164 166 l-164 165 q-10 9 -10 21.5 q0 12.5 9.5 22 q9.5 9.5 21.5 9.5 ZM865 87 q14 0 22.5 -8.5 q8.5 -8.5 8.5 -22 q0 -13.5 -8.5 -22.5 q-8.5 -9 -22.5 -9 l-249 0 q-13 0 -22 9 q-9 9 -9 22.5 q0 13.5 9 22 q9 8.5 22 8.5 l249 0 ZM741 212 q13 0 22 -8.5 q9 -8.5 9 -22.5 l0 -249 q0 -14 -9 -23 q-9 -9 -22.5 -9 q-13.5 0 -22 9 q-8.5 9 -8.5 23 l0 249 q0 14 8.5 22.5 q8.5 8.5 22.5 8.5 Z"></path></symbol><symbol id="chakanjieguo" viewBox="0 -212 1024 1024"><path d="M919 -18 q19 0 32 -12.5 q13 -12.5 13 -29.5 q0 -17 -13 -29.5 q-13 -12.5 -32 -12.5 l-806 0 q-19 0 -32 12.5 q-13 12.5 -13 29.5 q0 17 13 29.5 q13 12.5 32 12.5 l806 0 ZM268 345 q21 0 35.5 -12.5 q14.5 -12.5 14.5 -30 q0 -17.5 -14.5 -30 q-14.5 -12.5 -35.5 -12.5 l-151 0 q-20 0 -34.5 12.5 q-14.5 12.5 -14.5 30 q0 17.5 14.5 30 q14.5 12.5 34.5 12.5 l151 0 ZM366 701 q19 0 32.5 -12.5 q13.5 -12.5 13.5 -30 q0 -17.5 -13.5 -29.5 q-13.5 -12 -32.5 -12 l-252 0 q-19 0 -32.5 12 q-13.5 12 -13.5 29.5 q0 17.5 13.5 30 q13.5 12.5 32.5 12.5 l252 0 ZM958 714 q17 0 28 -12 q11 -12 11 -28.5 q0 -16.5 -11 -27.5 l-87 -86 q-11 -11 -28 -11 q-17 0 -28.5 11.5 q-11.5 11.5 -11.5 27.5 q0 16 11 28 l88 86 q12 12 28 12 ZM679 696 q81 0 151 -41 q68 -39 108 -106 q41 -69 41 -149.5 q0 -80.5 -41 -150.5 q-40 -67 -108 -106 q-70 -40 -151.5 -40 q-81.5 0 -151.5 40 q-68 39 -108 106 q-41 70 -41 150.5 q0 80.5 41 149.5 q40 67 108 106 q70 41 152 41 ZM678 169 q61 0 113 31 q52 31 82.5 83.5 q30.5 52.5 30.5 115 q0 62.5 -30.5 115 q-30.5 52.5 -82.5 83.5 q-52 31 -113.5 31 q-61.5 0 -113.5 -31 q-52 -31 -82.5 -83.5 q-30.5 -52.5 -30.5 -115 q0 -62.5 30.5 -115 q30.5 -52.5 82.5 -83.5 q52 -31 114 -31 Z"></path></symbol><symbol id="uniE7F4" viewBox="0 -212 1024 1024"><path d="M302 13 q-17 0 -28 -11.5 q-11 -11.5 -11 -28 q0 -16.5 11 -28 q11 -11.5 28 -11.5 l450 0 q15 0 27 11.5 q12 11.5 12 28 q0 16.5 -12 28 q-12 11.5 -27 11.5 l-450 0 ZM885 81 q29 0 49.5 20.5 q20.5 20.5 20.5 50.5 l0 307 q0 29 -20.5 50 q-20.5 21 -48.5 21 q-16 0 -27 -11.5 q-11 -11.5 -11 -26.5 q0 -15 10 -25.5 q10 -10.5 23 -12.5 l0 -304 l-721 0 l0 305 q13 1 22.5 11.5 q9.5 10.5 9.5 25.5 q0 15 -11 26.5 q-11 11.5 -26 11.5 q-29 0 -49.5 -21 q-20.5 -21 -20.5 -50 l0 -307 q0 -30 20.5 -50.5 q20.5 -20.5 49.5 -20.5 l731 0 l-1 0 ZM751 318 q26 0 44.5 19 q18.5 19 18.5 45 l0 318 q0 27 -18.5 45.5 q-18.5 18.5 -44.5 18.5 l-460 0 q-26 0 -44.5 -18.5 q-18.5 -18.5 -18.5 -45.5 l0 -318 q0 -26 18.5 -45 q18.5 -19 44.5 -19 l460 0 ZM745 389 l-446 0 l0 303 l446 0 l0 -303 Z"></path></symbol><symbol id="tuisong" viewBox="0 -212 1024 1024"><path d="M1024 -163 q1 -3 1 -5 l0 -6 q0 -2 -1 -4 q-1 -5 -3 -9 l-1 -1 q-1 -2 -3 -4 l-3 -4 q-2 -2 -4 -3 l-1 -1 q-1 -1 -4 -2 q-2 -1 -4 -1 q-2 -1 -5 -1 l-6 0 q-2 0 -4 1 q-1 0 -3 1 l-964 400 q-19 8 -19 31 q2 22 22 30 l287 80 l59 309 q3 17 18 23 q5 2 11 2 q9 0 18 -6 l126 -90 l94 98 q8 10 20 10 l5 0 q16 -4 23 -19 l339 -824 l2 -5 ZM329 283 l-253 -62 l825 -338 l-572 400 ZM382 407 l127 136 l-89 65 l-38 -201 ZM384 334 l29 -26 l525 -402 l-293 710 l-261 -282 Z"></path></symbol></defs></svg>